{"accessors" : [{"bufferView" : 0, "byteOffset" : 0, "componentType" : 5123, "count" : 648, "type" : "SCALAR", "max" : [647], "min" : [0]}, {"bufferView" : 1, "byteOffset" : 0, "componentType" : 5126, "count" : 648, "type" : "VEC3", "max" : [-287232, 37687.51953125, 576448.25], "min" : [-553449.75, 0, 314038.625], "name" : "POSITION"}, {"bufferView" : 1, "byteOffset" : 12, "componentType" : 5126, "count" : 648, "type" : "VEC3", "max" : [0.9876983165740967, 1.0000044107437134, 1.0000044107437134], "min" : [-0.9876983165740967, -1.0000044107437134, -1.0000044107437134], "name" : "NORMAL"}, {"bufferView" : 1, "byteOffset" : 24, "componentType" : 5126, "count" : 648, "type" : "VEC2", "max" : [1.0277999639511108, 1], "min" : [0.007600000128149986, 0], "name" : "TEXCOORD_0"}, {"bufferView" : 0, "byteOffset" : 1296, "componentType" : 5123, "count" : 648, "type" : "SCALAR", "max" : [647], "min" : [0]}, {"bufferView" : 2, "byteOffset" : 0, "componentType" : 5126, "count" : 648, "type" : "VEC3", "max" : [-509570.6875, 31073.51953125, 869166.9375], "min" : [-729068.375, 0, 652809.125], "name" : "POSITION"}, {"bufferView" : 2, "byteOffset" : 12, "componentType" : 5126, "count" : 648, "type" : "VEC3", "max" : [0.9876983165740967, 1.0000044107437134, 1.0000044107437134], "min" : [-0.9876983165740967, -1.0000044107437134, -1.0000044107437134], "name" : "NORMAL"}, {"bufferView" : 2, "byteOffset" : 24, "componentType" : 5126, "count" : 648, "type" : "VEC2", "max" : [1.0277999639511108, 1], "min" : [0.007600000128149986, 0], "name" : "TEXCOORD_0"}, {"bufferView" : 0, "byteOffset" : 2592, "componentType" : 5123, "count" : 648, "type" : "SCALAR", "max" : [647], "min" : [0]}, {"bufferView" : 3, "byteOffset" : 0, "componentType" : 5126, "count" : 648, "type" : "VEC3", "max" : [-583901.875, 59333.33203125, 598687], "min" : [-1003021.6875, 0, 185562.515625], "name" : "POSITION"}, {"bufferView" : 3, "byteOffset" : 12, "componentType" : 5126, "count" : 648, "type" : "VEC3", "max" : [0.9876983165740967, 1.0000044107437134, 1.0000044107437134], "min" : [-0.9876983165740967, -1.0000044107437134, -1.0000044107437134], "name" : "NORMAL"}, {"bufferView" : 3, "byteOffset" : 24, "componentType" : 5126, "count" : 648, "type" : "VEC2", "max" : [1.0277999639511108, 1], "min" : [0.007600000128149986, 0], "name" : "TEXCOORD_0"}, {"bufferView" : 0, "byteOffset" : 3888, "componentType" : 5123, "count" : 432, "type" : "SCALAR", "max" : [431], "min" : [0]}, {"bufferView" : 4, "byteOffset" : 0, "componentType" : 5126, "count" : 432, "type" : "VEC3", "max" : [-686536.6875, 58799.640625, 494798.84375], "min" : [-900396.875, 3977.994384765625, 284298.25], "name" : "POSITION"}, {"bufferView" : 4, "byteOffset" : 12, "componentType" : 5126, "count" : 432, "type" : "VEC3", "max" : [0.9848201274871826, 1.0000044107437134, 1.0000044107437134], "min" : [-0.9848201274871826, -1.0000044107437134, -1.0000044107437134], "name" : "NORMAL"}, {"bufferView" : 4, "byteOffset" : 24, "componentType" : 5126, "count" : 432, "type" : "VEC2", "max" : [0.9923999905586243, 1], "min" : [0.007600000128149986, 0], "name" : "TEXCOORD_0"}], "asset" : {"generator" : "Aspose.3D 23.2", "version" : "2.0"}, "buffers" : [{"uri" : "data:application/octet-stream;base64,", "byteLength" : 80804}], "bufferViews" : [{"buffer" : 0, "byteOffset" : 0, "byteLength" : 4752, "target" : 34963}, {"buffer" : 0, "byteOffset" : 4756, "byteLength" : 20736, "byteStride" : 32, "target" : 34962}, {"buffer" : 0, "byteOffset" : 25496, "byteLength" : 20736, "byteStride" : 32, "target" : 34962}, {"buffer" : 0, "byteOffset" : 46236, "byteLength" : 20736, "byteStride" : 32, "target" : 34962}, {"buffer" : 0, "byteOffset" : 66976, "byteLength" : 13824, "byteStride" : 32, "target" : 34962}], "materials" : [{"name" : "13___Default", "pbrMetallicRoughness" : {"baseColorFactor" : [0.1451, 0.1451, 0.1451, 1], "metallicFactor" : 0, "roughnessFactor" : 0.99}, "emissiveFactor" : [0, 0, 0], "alphaMode" : "OPAQUE", "doubleSided" : false}, {"name" : "13___Default", "pbrMetallicRoughness" : {"baseColorFactor" : [0.1451, 0.1451, 0.1451, 1], "metallicFactor" : 0, "roughnessFactor" : 0.99}, "emissiveFactor" : [0, 0, 0], "alphaMode" : "OPAQUE", "doubleSided" : false}, {"name" : "13___Default", "pbrMetallicRoughness" : {"baseColorFactor" : [0.1451, 0.1451, 0.1451, 1], "metallicFactor" : 0, "roughnessFactor" : 0.99}, "emissiveFactor" : [0, 0, 0], "alphaMode" : "OPAQUE", "doubleSided" : false}, {"name" : "13___Default", "pbrMetallicRoughness" : {"baseColorFactor" : [0.1451, 0.1451, 0.1451, 1], "metallicFactor" : 0, "roughnessFactor" : 0.99}, "emissiveFactor" : [0, 0, 0], "alphaMode" : "OPAQUE", "doubleSided" : false}], "meshes" : [{"primitives" : [{"attributes" : {"POSITION" : 1, "NORMAL" : 2, "TEXCOORD_0" : 3}, "indices" : 0, "material" : 0, "mode" : 4}]}, {"primitives" : [{"attributes" : {"POSITION" : 5, "NORMAL" : 6, "TEXCOORD_0" : 7}, "indices" : 4, "material" : 1, "mode" : 4}]}, {"primitives" : [{"attributes" : {"POSITION" : 9, "NORMAL" : 10, "TEXCOORD_0" : 11}, "indices" : 8, "material" : 2, "mode" : 4}]}, {"primitives" : [{"attributes" : {"POSITION" : 13, "NORMAL" : 14, "TEXCOORD_0" : 15}, "indices" : 12, "material" : 3, "mode" : 4}]}], "nodes" : [{"mesh" : 0, "name" : "Cylinder001"}, {"mesh" : 1, "name" : "Cylinder002"}, {"mesh" : 2, "name" : "Cylinder003"}, {"mesh" : 3, "name" : "Object001"}], "scene" : 0, "scenes" : [{"nodes" : [0, 1, 2, 3]}]}