<?xml version="1.0" encoding="UTF-8"?>
<!DOCTYPE svg PUBLIC "-//W3C//DTD SVG 1.1//EN" "http://www.w3.org/Graphics/SVG/1.1/DTD/svg11.dtd">
<svg xmlns="http://www.w3.org/2000/svg" version="1.1" viewBox="0 0 783 274" style="shape-rendering:geometricPrecision; text-rendering:geometricPrecision; image-rendering:optimizeQuality; fill-rule:evenodd; clip-rule:evenodd" xmlns:xlink="http://www.w3.org/1999/xlink">
<g><path style="opacity:0.973" fill="#0c4247" d="M 442.5,30.5 C 461.755,61.4133 463.588,93.4133 448,126.5C 442.245,136.489 434.745,144.989 425.5,152C 415.164,158.837 404.497,165.17 393.5,171C 389.084,173.998 386.918,178.165 387,183.5C 385.169,201.812 383.669,220.146 382.5,238.5C 381.833,246.5 381.167,254.5 380.5,262.5C 377.816,260.807 375.149,259.14 372.5,257.5C 363.28,247.888 358.613,236.388 358.5,223C 363.961,165.688 370.627,108.521 378.5,51.5C 379.552,51.3505 380.552,51.5172 381.5,52C 384.548,55.2902 387.215,58.7902 389.5,62.5C 393.538,70.3251 395.205,78.6584 394.5,87.5C 393.681,105.857 392.848,124.19 392,142.5C 394.127,140.886 395.627,138.886 396.5,136.5C 413.946,121.273 427.78,103.273 438,82.5C 442.861,69.0648 443.694,55.3981 440.5,41.5C 436.875,36.0614 431.875,32.2281 425.5,30C 414.281,26.4063 403.281,27.073 392.5,32C 385.167,35.6667 377.833,39.3333 370.5,43C 369.619,43.7083 368.953,44.5416 368.5,45.5C 367.504,45.5858 366.671,45.2524 366,44.5C 362.554,38.6171 362.888,32.9504 367,27.5C 382.228,8.98483 401.061,4.1515 423.5,13C 431.593,17.0256 437.926,22.859 442.5,30.5 Z"/></g>
<g><path style="opacity:0.97" fill="#0c4247" d="M 90.5,34.5 C 90.7376,36.4044 91.7376,37.7377 93.5,38.5C 103.625,55.3226 108.625,73.6559 108.5,93.5C 107.407,141.268 97.9068,187.268 80,231.5C 76.0106,242.487 68.8439,250.654 58.5,256C 55.5,256.667 52.5,256.667 49.5,256C 44.6451,252.961 40.3117,249.461 36.5,245.5C 34.5698,241.9 31.9031,238.9 28.5,236.5C 23.1302,232.459 19.7969,227.125 18.5,220.5C 21.7445,218.116 23.7445,219.116 24.5,223.5C 25.0798,225.749 26.4131,227.415 28.5,228.5C 34.5937,233.623 40.927,233.79 47.5,229C 58.6739,219.163 66.1739,206.996 70,192.5C 81.7244,155.211 88.5578,117.044 90.5,78C 90.2143,66.3488 88.8809,54.8488 86.5,43.5C 86.2488,41.8297 85.5822,40.3297 84.5,39C 78.0175,36.0169 71.3508,35.6836 64.5,38C 43.8197,44.5127 29.8197,58.0127 22.5,78.5C 21.675,79.3857 20.675,79.719 19.5,79.5C 15.866,75.7783 13.866,71.2783 13.5,66C 16.982,39.5077 31.6487,22.5077 57.5,15C 64.8312,13.9991 71.4978,15.6658 77.5,20C 82.4114,24.4062 86.7448,29.2395 90.5,34.5 Z"/></g>
<g><path style="opacity:0.869" fill="#18a2ac" d="M 440.5,41.5 C 428.521,33.1618 415.521,31.3285 401.5,36C 391.378,40.5609 381.378,45.3943 371.5,50.5C 369.738,49.3115 368.738,47.6449 368.5,45.5C 368.953,44.5416 369.619,43.7083 370.5,43C 377.833,39.3333 385.167,35.6667 392.5,32C 403.281,27.073 414.281,26.4063 425.5,30C 431.875,32.2281 436.875,36.0614 440.5,41.5 Z"/></g>
<g><path style="opacity:0.9" fill="#18a3ad" d="M 86.5,43.5 C 70.2998,41.2527 56.2998,45.9194 44.5,57.5C 43.5,57.8333 42.8333,58.5 42.5,59.5C 41.8333,59.5 41.5,59.8333 41.5,60.5C 41.5,60.8333 41.5,61.1667 41.5,61.5C 38.8852,63.3788 36.7186,65.7121 35,68.5C 31.7686,73.7963 28.9352,79.2963 26.5,85C 23.5356,84.2281 21.2023,82.3948 19.5,79.5C 20.675,79.719 21.675,79.3857 22.5,78.5C 29.8197,58.0127 43.8197,44.5127 64.5,38C 71.3508,35.6836 78.0175,36.0169 84.5,39C 85.5822,40.3297 86.2488,41.8297 86.5,43.5 Z"/></g>
<g><path style="opacity:0.937" fill="#12757d" d="M 90.5,34.5 C 92.2624,35.2623 93.2624,36.5956 93.5,38.5C 91.7376,37.7377 90.7376,36.4044 90.5,34.5 Z"/></g>
<g><path style="opacity:0.874" fill="#18a2ac" d="M 442.5,30.5 C 464.299,58.3035 469.133,88.9702 457,122.5C 450.831,136.668 441.664,148.501 429.5,158C 419.164,164.837 408.497,171.17 397.5,177C 395.622,178.543 394.122,180.376 393,182.5C 389.239,211.041 387.072,239.708 386.5,268.5C 380.711,266.391 376.044,262.724 372.5,257.5C 375.149,259.14 377.816,260.807 380.5,262.5C 380.56,263.043 380.893,263.376 381.5,263.5C 382.498,255.193 382.831,246.86 382.5,238.5C 383.669,220.146 385.169,201.812 387,183.5C 386.918,178.165 389.084,173.998 393.5,171C 404.497,165.17 415.164,158.837 425.5,152C 434.745,144.989 442.245,136.489 448,126.5C 463.588,93.4133 461.755,61.4133 442.5,30.5 Z"/></g>
<g><path style="opacity:0.875" fill="#18a2ac" d="M 93.5,38.5 C 98.5563,43.5869 102.39,49.5869 105,56.5C 112.136,77.2594 114.469,98.5928 112,120.5C 108.955,161.344 99.6221,200.678 84,238.5C 79.5333,249.299 72.0333,257.132 61.5,262C 56.1867,263.014 51.52,261.681 47.5,258C 43.2525,254.258 39.5859,250.092 36.5,245.5C 40.3117,249.461 44.6451,252.961 49.5,256C 52.5,256.667 55.5,256.667 58.5,256C 68.8439,250.654 76.0106,242.487 80,231.5C 97.9068,187.268 107.407,141.268 108.5,93.5C 108.625,73.6559 103.625,55.3226 93.5,38.5 Z"/></g>
<g><path style="opacity:0.976" fill="#0c4247" d="M 762.5,63.5 C 763.349,66.0351 764.349,68.5351 765.5,71C 765.355,71.772 765.022,72.4387 764.5,73C 749.235,76.3538 734.402,80.8538 720,86.5C 716.476,130.74 714.476,175.073 714,219.5C 715.709,222.418 717.542,225.252 719.5,228C 716.028,229.58 712.362,229.913 708.5,229C 705.688,227.672 703.022,226.172 700.5,224.5C 697.365,222.24 695.198,219.24 694,215.5C 693.018,178.097 694.185,140.764 697.5,103.5C 698.167,103.5 698.5,103.167 698.5,102.5C 698.808,100.076 698.474,97.7427 697.5,95.5C 688.833,99.1667 680.167,102.833 671.5,106.5C 670.129,141.51 670.296,176.51 672,211.5C 672.85,216.584 674.016,221.584 675.5,226.5C 674.635,227.583 673.635,227.749 672.5,227C 668.678,224.67 665.012,222.17 661.5,219.5C 656.769,215.055 653.269,209.721 651,203.5C 649.679,195.561 649.179,187.561 649.5,179.5C 649.666,174.489 649.499,169.489 649,164.5C 643.093,179.487 635.26,193.32 625.5,206C 621.614,207.805 617.614,209.305 613.5,210.5C 607.901,209.027 602.568,207.027 597.5,204.5C 595.496,203.327 593.996,201.66 593,199.5C 592.333,191.833 592.333,184.167 593,176.5C 596.302,145.118 599.968,113.785 604,82.5C 604.388,81.572 605.055,80.9054 606,80.5C 610.189,81.1548 612.689,83.4881 613.5,87.5C 613.5,110.167 613.5,132.833 613.5,155.5C 612.342,164.657 612.176,173.991 613,183.5C 613.717,182.956 614.217,182.289 614.5,181.5C 615.89,180.101 616.89,178.434 617.5,176.5C 624.916,166.682 631.083,156.015 636,144.5C 642.642,126.239 649.475,108.072 656.5,90C 682.509,73.3327 710.509,60.9994 740.5,53C 750.096,51.966 757.429,55.466 762.5,63.5 Z"/></g>
<g><path style="opacity:0.968" fill="#0c4247" d="M 44.5,57.5 C 50.0863,60.0841 54.4196,64.0841 57.5,69.5C 60.3951,77.5607 61.2285,85.894 60,94.5C 54.2774,135.559 48.2774,176.559 42,217.5C 39.7009,218.58 37.5342,218.246 35.5,216.5C 32.7687,214.929 30.9354,212.595 30,209.5C 28.6826,205.096 27.8492,200.596 27.5,196C 30.1563,150.945 34.823,106.112 41.5,61.5C 41.5,61.1667 41.5,60.8333 41.5,60.5C 42.1667,60.5 42.5,60.1667 42.5,59.5C 42.8333,58.5 43.5,57.8333 44.5,57.5 Z"/></g>
<g><path style="opacity:0.874" fill="#18a2ac" d="M 389.5,62.5 C 394.31,67.0459 397.143,72.7126 398,79.5C 398.776,98.5622 398.276,117.562 396.5,136.5C 395.627,138.886 394.127,140.886 392,142.5C 392.848,124.19 393.681,105.857 394.5,87.5C 395.205,78.6584 393.538,70.3251 389.5,62.5 Z"/></g>
<g><path style="opacity:0.887" fill="#18a2ab" d="M 762.5,63.5 C 766.987,67.4703 769.653,72.4703 770.5,78.5C 755.061,81.9245 739.895,86.2578 725,91.5C 721.986,131.933 719.486,172.433 717.5,213C 717.048,220.834 719.382,227.667 724.5,233.5C 720.286,235.98 715.953,236.147 711.5,234C 706.388,232.38 702.721,229.213 700.5,224.5C 703.022,226.172 705.688,227.672 708.5,229C 712.362,229.913 716.028,229.58 719.5,228C 717.542,225.252 715.709,222.418 714,219.5C 714.476,175.073 716.476,130.74 720,86.5C 734.402,80.8538 749.235,76.3538 764.5,73C 765.022,72.4387 765.355,71.772 765.5,71C 764.349,68.5351 763.349,66.0351 762.5,63.5 Z"/></g>
<g><path style="opacity:0.87" fill="#18a0aa" d="M 57.5,69.5 C 63.3437,75.3759 66.0103,82.5426 65.5,91C 60.1852,135.204 53.8519,179.204 46.5,223C 40.9993,223.917 37.3326,221.75 35.5,216.5C 37.5342,218.246 39.7009,218.58 42,217.5C 48.2774,176.559 54.2774,135.559 60,94.5C 61.2285,85.894 60.3951,77.5607 57.5,69.5 Z"/></g>
<g><path style="opacity:0.976" fill="#0c4247" d="M 561.5,87.5 C 565.248,95.8089 568.081,104.476 570,113.5C 575.5,151.33 581,189.164 586.5,227C 587.014,233.818 584.014,236.151 577.5,234C 575.114,232.807 572.78,231.64 570.5,230.5C 566.229,226.376 563.396,221.376 562,215.5C 559.723,203.502 557.556,191.502 555.5,179.5C 555.813,176.753 555.48,174.086 554.5,171.5C 543.656,179.089 532.989,186.922 522.5,195C 516.211,197.337 510.211,196.837 504.5,193.5C 502.496,192.327 500.996,190.66 500,188.5C 499.333,184.833 499.333,181.167 500,177.5C 511.732,143.637 523.066,109.637 534,75.5C 536.415,71.649 539.915,70.4823 544.5,72C 551.954,75.3631 557.621,80.5297 561.5,87.5 Z M 546.5,119.5 C 548.06,127.918 549.394,136.418 550.5,145C 550.435,147.591 549.935,150.091 549,152.5C 542.398,157.547 535.565,162.214 528.5,166.5C 534.126,150.613 540.126,134.947 546.5,119.5 Z"/></g>
<g><path style="opacity:0.972" fill="#0c4247" d="M 490.5,88.5 C 490.666,94.8421 490.5,101.175 490,107.5C 486.166,144.51 482.332,181.51 478.5,218.5C 480.415,218.784 482.081,218.451 483.5,217.5C 497.499,216.333 511.499,215.5 525.5,215C 530.888,216.514 534.888,219.681 537.5,224.5C 539.386,228.613 540.386,232.946 540.5,237.5C 504.372,235.199 471.039,243.532 440.5,262.5C 439.603,263.598 438.77,263.598 438,262.5C 432.805,250.965 435.305,241.465 445.5,234C 450.51,230.493 455.843,227.493 461.5,225C 462.357,224.311 463.023,223.478 463.5,222.5C 461.109,218.387 459.276,214.054 458,209.5C 457.333,201.5 457.333,193.5 458,185.5C 463.539,151.474 469.205,117.474 475,83.5C 478.409,82.3781 481.909,82.2114 485.5,83C 488.079,84.0757 489.746,85.909 490.5,88.5 Z"/></g>
<g><path style="opacity:0.862" fill="#18a0a9" d="M 613.5,87.5 C 615.888,88.2187 617.388,89.8854 618,92.5C 618.664,120.507 618.497,148.507 617.5,176.5C 616.89,178.434 615.89,180.101 614.5,181.5C 613.507,173.016 613.174,164.349 613.5,155.5C 613.5,132.833 613.5,110.167 613.5,87.5 Z"/></g>
<g><path style="opacity:0.879" fill="#18a1aa" d="M 490.5,88.5 C 494.883,92.0314 496.55,96.698 495.5,102.5C 492.092,140.919 488.092,179.252 483.5,217.5C 482.081,218.451 480.415,218.784 478.5,218.5C 482.332,181.51 486.166,144.51 490,107.5C 490.5,101.175 490.666,94.8421 490.5,88.5 Z"/></g>
<g><path style="opacity:0.822" fill="#18a3ad" d="M 561.5,87.5 C 564.965,90.406 567.465,94.0727 569,98.5C 570.535,102.773 571.869,107.106 573,111.5C 579.347,151.426 585.18,191.426 590.5,231.5C 590.161,240.843 585.827,243.01 577.5,238C 574.961,235.63 572.628,233.13 570.5,230.5C 572.78,231.64 575.114,232.807 577.5,234C 584.014,236.151 587.014,233.818 586.5,227C 581,189.164 575.5,151.33 570,113.5C 568.081,104.476 565.248,95.8089 561.5,87.5 Z"/></g>
<g><path style="opacity:0.968" fill="#0c4247" d="M 277.5,114.5 C 283.368,131.66 280.201,146.993 268,160.5C 259.492,169.488 250.325,177.655 240.5,185C 243.312,186.549 246.312,187.382 249.5,187.5C 256.701,189.765 263.701,192.598 270.5,196C 275.377,199.376 279.377,203.543 282.5,208.5C 282.751,210.17 283.418,211.67 284.5,213C 269.093,210.814 254.093,206.814 239.5,201C 234.689,198.015 230.356,194.515 226.5,190.5C 226.44,189.957 226.107,189.624 225.5,189.5C 224.526,191.743 224.192,194.076 224.5,196.5C 224.539,210.68 223.039,224.68 220,238.5C 217.399,243.257 213.566,244.591 208.5,242.5C 206.648,241.48 205.315,239.98 204.5,238C 202.805,232.637 201.805,227.137 201.5,221.5C 204.348,183.149 207.348,144.815 210.5,106.5C 211.369,104.283 211.702,101.95 211.5,99.5C 208.5,100.167 205.5,100.833 202.5,101.5C 200.738,101.357 199.071,101.691 197.5,102.5C 196.643,101.264 195.977,99.931 195.5,98.5C 214.235,89.7735 233.568,88.2735 253.5,94C 264.167,97.8427 272.167,104.676 277.5,114.5 Z M 247.5,107.5 C 257.542,125.136 256.375,142.136 244,158.5C 240.258,162.747 236.092,166.414 231.5,169.5C 231.167,147.157 231.5,124.823 232.5,102.5C 237.881,103.182 242.881,104.849 247.5,107.5 Z"/></g>
<g><path style="opacity:0.86" fill="#18a0aa" d="M 698.5,102.5 C 697.833,102.5 697.5,102.833 697.5,103.5C 690.231,106.367 682.898,109.034 675.5,111.5C 675.333,144.502 675.5,177.502 676,210.5C 676.737,218.187 678.237,225.687 680.5,233C 673.146,231.358 666.979,227.525 662,221.5C 661.536,220.906 661.369,220.239 661.5,219.5C 665.012,222.17 668.678,224.67 672.5,227C 673.635,227.749 674.635,227.583 675.5,226.5C 674.016,221.584 672.85,216.584 672,211.5C 670.296,176.51 670.129,141.51 671.5,106.5C 680.167,102.833 688.833,99.1667 697.5,95.5C 698.474,97.7427 698.808,100.076 698.5,102.5 Z"/></g>
<g><path style="opacity:0.974" fill="#18a4ae" d="M 247.5,107.5 C 242.881,104.849 237.881,103.182 232.5,102.5C 231.5,124.823 231.167,147.157 231.5,169.5C 230.793,171.134 229.627,172.468 228,173.5C 227.5,148.169 227.333,122.836 227.5,97.5C 236.177,97.1713 242.843,100.505 247.5,107.5 Z"/></g>
<g><path style="opacity:0.827" fill="#18a4ad" d="M 210.5,106.5 C 207.421,106.26 204.421,106.593 201.5,107.5C 200.643,106.264 199.977,104.931 199.5,103.5C 200.602,102.824 201.602,102.158 202.5,101.5C 205.5,100.833 208.5,100.167 211.5,99.5C 211.702,101.95 211.369,104.283 210.5,106.5 Z"/></g>
<g><path style="opacity:0.909" fill="#18a2ac" d="M 546.5,119.5 C 540.126,134.947 534.126,150.613 528.5,166.5C 526.244,169.808 523.244,171.141 519.5,170.5C 527.903,149.621 535.903,128.621 543.5,107.5C 544.5,107.5 545.5,107.5 546.5,107.5C 546.5,111.5 546.5,115.5 546.5,119.5 Z"/></g>
<g><path style="opacity:0.968" fill="#0c4247" d="M 175.5,123.5 C 190.732,152.488 194.232,182.821 186,214.5C 182.206,225.959 174.706,233.792 163.5,238C 149.4,238.945 137.067,234.778 126.5,225.5C 118.02,217.414 114.02,207.414 114.5,195.5C 116.935,167.695 125.102,141.695 139,117.5C 153.375,106.566 165.542,108.566 175.5,123.5 Z M 162.5,131.5 C 167.991,145.826 171.991,160.659 174.5,176C 173.644,195.368 166.311,211.701 152.5,225C 149.881,226.696 147.214,226.863 144.5,225.5C 139.686,212.743 139.186,199.743 143,186.5C 146.829,167.176 153.329,148.843 162.5,131.5 Z"/></g>
<g><path style="opacity:0.878" fill="#18a3ad" d="M 277.5,114.5 C 281.784,118.466 284.284,123.466 285,129.5C 286.229,143.813 281.896,156.146 272,166.5C 264.905,174.1 257.405,181.1 249.5,187.5C 246.312,187.382 243.312,186.549 240.5,185C 250.325,177.655 259.492,169.488 268,160.5C 280.201,146.993 283.368,131.66 277.5,114.5 Z"/></g>
<g><path style="opacity:0.892" fill="#18a1ab" d="M 162.5,131.5 C 153.329,148.843 146.829,167.176 143,186.5C 139.186,199.743 139.686,212.743 144.5,225.5C 140.111,220.722 137.278,215.055 136,208.5C 136.55,177.682 144.716,149.016 160.5,122.5C 162.129,125.266 162.795,128.266 162.5,131.5 Z"/></g>
<g><path style="opacity:0.836" fill="#18a2ac" d="M 175.5,123.5 C 177.451,124.716 178.951,126.382 180,128.5C 195.676,158.267 199.009,189.267 190,221.5C 186.13,231.089 179.63,238.256 170.5,243C 153.442,245.202 138.942,240.035 127,227.5C 126.536,226.906 126.369,226.239 126.5,225.5C 137.067,234.778 149.4,238.945 163.5,238C 174.706,233.792 182.206,225.959 186,214.5C 194.232,182.821 190.732,152.488 175.5,123.5 Z"/></g>
<g><path style="opacity:0.884" fill="#18a3ad" d="M 649.5,179.5 C 644.464,189.897 638.631,199.897 632,209.5C 626.697,214.156 620.531,215.989 613.5,215C 609.271,213.885 605.271,212.219 601.5,210C 599.536,208.549 598.203,206.716 597.5,204.5C 602.568,207.027 607.901,209.027 613.5,210.5C 617.614,209.305 621.614,207.805 625.5,206C 635.26,193.32 643.093,179.487 649,164.5C 649.499,169.489 649.666,174.489 649.5,179.5 Z"/></g>
<g><path style="opacity:1" fill="#148790" d="M 613.5,155.5 C 613.174,164.349 613.507,173.016 614.5,181.5C 614.217,182.289 613.717,182.956 613,183.5C 612.176,173.991 612.342,164.657 613.5,155.5 Z"/></g>
<g><path style="opacity:0.891" fill="#18a3ad" d="M 555.5,179.5 C 544.99,187.169 534.323,194.669 523.5,202C 514.893,203.866 508.56,201.033 504.5,193.5C 510.211,196.837 516.211,197.337 522.5,195C 532.989,186.922 543.656,179.089 554.5,171.5C 555.48,174.086 555.813,176.753 555.5,179.5 Z"/></g>
<g><path style="opacity:0.835" fill="#18a2ac" d="M 226.5,190.5 C 230.356,194.515 234.689,198.015 239.5,201C 254.093,206.814 269.093,210.814 284.5,213C 283.418,211.67 282.751,210.17 282.5,208.5C 285.554,211.238 287.887,214.571 289.5,218.5C 275.794,216.494 262.128,213.328 248.5,209C 241.556,205.947 235.389,201.781 230,196.5C 229.089,206.817 228.422,217.15 228,227.5C 227.298,233.639 225.965,239.639 224,245.5C 221.091,248.394 217.591,249.227 213.5,248C 210.921,246.924 209.254,245.091 208.5,242.5C 213.566,244.591 217.399,243.257 220,238.5C 223.039,224.68 224.539,210.68 224.5,196.5C 225.167,194.5 225.833,192.5 226.5,190.5 Z"/></g>
<g><path style="opacity:1" fill="#12747c" d="M 226.5,190.5 C 225.833,192.5 225.167,194.5 224.5,196.5C 224.192,194.076 224.526,191.743 225.5,189.5C 226.107,189.624 226.44,189.957 226.5,190.5 Z"/></g>
<g><path style="opacity:0.331" fill="#16959e" d="M 24.5,223.5 C 26.9354,224.27 28.2687,225.937 28.5,228.5C 26.4131,227.415 25.0798,225.749 24.5,223.5 Z"/></g>
<g><path style="opacity:0.889" fill="#18a3ad" d="M 537.5,224.5 C 542.605,229.72 545.271,236.053 545.5,243.5C 508.699,240.908 474.532,249.242 443,268.5C 441.337,266.842 440.504,264.842 440.5,262.5C 471.039,243.532 504.372,235.199 540.5,237.5C 540.386,232.946 539.386,228.613 537.5,224.5 Z"/></g>
<g><path style="opacity:0.004" fill="#16939c" d="M 28.5,236.5 C 31.9031,238.9 34.5698,241.9 36.5,245.5C 33.0969,243.1 30.4302,240.1 28.5,236.5 Z"/></g>
<g><path style="opacity:1" fill="#116e75" d="M 382.5,238.5 C 382.831,246.86 382.498,255.193 381.5,263.5C 380.893,263.376 380.56,263.043 380.5,262.5C 381.167,254.5 381.833,246.5 382.5,238.5 Z"/></g>
</svg>
